<svg width="208" height="90" viewBox="0 0 208 90" fill="none" xmlns="http://www.w3.org/2000/svg">
<rect x="38.5" y="0.5" width="169" height="89" rx="3.5" stroke="#AFB1B8"/>
<path d="M42.7709 43.3533C42.3789 42.7432 42.1914 42.022 42.2359 41.2962V38.3135C42.2359 37.3992 42.4132 36.7044 42.7679 36.2291C43.1225 35.7537 43.7316 35.517 44.5952 35.5191C45.4067 35.5191 45.9827 35.7213 46.3234 36.1259C46.6949 36.6421 46.8757 37.2733 46.8343 37.91V38.6109H45.3826V37.9009C45.3878 37.6685 45.3737 37.4361 45.3406 37.2061C45.3197 37.0488 45.2466 36.9033 45.1332 36.7934C44.9841 36.675 44.7963 36.6175 44.6072 36.6326C44.4084 36.6176 44.2111 36.6782 44.0542 36.8025C43.9278 36.9243 43.8435 37.0838 43.8138 37.2576C43.7722 37.5011 43.753 37.7479 43.7567 37.995V41.6147C43.7338 41.964 43.7979 42.3134 43.943 42.6312C44.0152 42.7387 44.1155 42.824 44.2327 42.8775C44.3499 42.9311 44.4796 42.9508 44.6072 42.9346C44.7932 42.9501 44.9777 42.8912 45.1212 42.7708C45.2395 42.6523 45.3155 42.4976 45.3376 42.3308C45.3715 42.0907 45.3865 41.8482 45.3826 41.6056V40.8714H46.8343V41.5419C46.875 42.2056 46.6987 42.8644 46.3324 43.4171C45.9988 43.86 45.4307 44.0815 44.5952 44.0815C43.7597 44.0815 43.1285 43.8449 42.7709 43.3533Z" fill="#AFB1B8"/>
<path d="M48.8146 43.3837C48.448 42.9194 48.2646 42.2428 48.2646 41.3477V38.2104C48.2646 37.3244 48.448 36.6538 48.8146 36.1987C49.1813 35.7436 49.7944 35.517 50.6539 35.5191C51.5075 35.5191 52.1176 35.7456 52.4842 36.1987C52.8509 36.6538 53.0372 37.3244 53.0372 38.2104V41.3477C53.0372 42.2337 52.8509 42.9134 52.4782 43.3806C52.1056 43.8479 51.4985 44.0815 50.6539 44.0815C49.8094 44.0815 49.1843 43.8449 48.8146 43.3837ZM51.3302 42.6312C51.4615 42.3404 51.5213 42.0219 51.5045 41.7027V37.8615C51.5213 37.5485 51.4625 37.2361 51.3332 36.9512C51.2595 36.8414 51.1568 36.7547 51.0367 36.7011C50.9166 36.6474 50.784 36.629 50.6539 36.6478C50.5235 36.6294 50.3907 36.6481 50.2702 36.7017C50.1497 36.7553 50.0463 36.8417 49.9717 36.9512C49.8395 37.2353 49.7796 37.5481 49.7974 37.8615V41.7209C49.7791 42.0402 49.839 42.3591 49.9717 42.6494C50.0563 42.7473 50.1607 42.8257 50.2779 42.8795C50.3951 42.9332 50.5223 42.961 50.6509 42.961C50.7796 42.961 50.9068 42.9332 51.024 42.8795C51.1411 42.8257 51.2455 42.7473 51.3302 42.6494V42.6312Z" fill="#AFB1B8"/>
<path d="M54.7833 35.6106H56.3462L57.5213 41.3992L58.7234 35.6106H60.2442L60.3975 43.9658H59.2734L59.1532 38.159L57.9931 43.9658H57.0915L55.8893 38.1378L55.7781 43.9658H54.6421L54.7833 35.6106Z" fill="#AFB1B8"/>
<path d="M62.1496 35.6106H64.5841C65.9866 35.6106 66.6879 36.4014 66.6879 37.9831C66.6879 39.498 65.9495 40.2544 64.4729 40.2524H63.6433V43.9658H62.1406L62.1496 35.6106ZM64.2294 39.1814C64.3779 39.2005 64.5287 39.1867 64.6714 39.1411C64.8141 39.0956 64.9453 39.0193 65.0559 38.9175C65.2282 38.6353 65.3042 38.3039 65.2723 37.974C65.2802 37.7191 65.2559 37.4642 65.2002 37.2155C65.1787 37.1324 65.1411 37.0545 65.0895 36.9863C65.0379 36.918 64.9734 36.8608 64.8996 36.8181C64.691 36.7171 64.4604 36.6711 64.2294 36.6846H63.6464V39.1814H64.2294Z" fill="#AFB1B8"/>
<path d="M68.8552 35.6106H70.469L72.125 43.9658H70.7245L70.3969 42.0393H68.9574L68.6208 43.9658H67.1992L68.8552 35.6106ZM70.2346 41.0715L69.6726 37.5644L69.1106 41.0715H70.2346Z" fill="#AFB1B8"/>
<path d="M73.462 35.6106H74.5139L76.5274 40.3768V35.6106H77.7747V43.9658H76.7739L74.7483 38.9903V43.9658H73.459L73.462 35.6106Z" fill="#AFB1B8"/>
<path d="M80.6965 40.7801L79.0225 35.6223H80.432L81.4538 38.9354L82.4125 35.6223H83.792L82.139 40.7801V43.9658H80.6965V40.7801Z" fill="#AFB1B8"/>
<path d="M45.0911 47.6189V48.0558H43.8648V51.4509H43.3509V48.0558H42.1187V47.6189H45.0911Z" fill="#AFB1B8"/>
<path d="M48.9352 51.4512H48.5385C48.4982 51.4537 48.4584 51.4407 48.4272 51.4148C48.3972 51.3925 48.3743 51.362 48.3611 51.3268L48.0065 50.4166H46.3054L45.9507 51.3268C45.9406 51.3649 45.9221 51.4001 45.8966 51.43C45.8652 51.4554 45.8256 51.4683 45.7854 51.4664H45.3887L46.8914 47.6345H47.4144L48.9352 51.4512ZM46.4466 50.0283H47.8652L47.2641 48.4688C47.2198 48.3509 47.1826 48.2303 47.1529 48.1078C47.1319 48.1806 47.1138 48.2504 47.0958 48.3111L47.0417 48.4719L46.4466 50.0283Z" fill="#AFB1B8"/>
<path d="M51.5255 51.0748C51.6197 51.0798 51.714 51.0798 51.8081 51.0748C51.8893 51.0664 51.9697 51.0512 52.0485 51.0293C52.1221 51.0111 52.1944 50.9878 52.2649 50.9595C52.331 50.9322 52.3971 50.8988 52.4662 50.8655V50.0037H51.8652C51.8503 50.0046 51.8354 50.0023 51.8215 49.9971C51.8075 49.9919 51.7947 49.9838 51.784 49.9734C51.7741 49.9648 51.7663 49.954 51.7611 49.9419C51.7559 49.9299 51.7535 49.9167 51.754 49.9036V49.6093H52.92V51.0779C52.8249 51.1466 52.7244 51.2075 52.6195 51.2599C52.5123 51.3133 52.4007 51.357 52.2859 51.3904C52.163 51.4269 52.0374 51.4533 51.9102 51.4693C51.7645 51.4856 51.6181 51.4937 51.4715 51.4936C51.2123 51.4958 50.9551 51.4473 50.7141 51.351C50.4891 51.2596 50.2847 51.1234 50.113 50.9504C49.9457 50.7757 49.814 50.5695 49.7253 50.3436C49.6306 50.0896 49.5837 49.8199 49.5871 49.5486C49.5839 49.2755 49.6298 49.0041 49.7223 48.7475C49.8088 48.5204 49.9408 48.3138 50.11 48.1406C50.2815 47.9682 50.486 47.833 50.7111 47.7431C50.9684 47.6454 51.2416 47.597 51.5165 47.6005C51.6564 47.6003 51.7961 47.6115 51.9343 47.6339C52.0564 47.654 52.1763 47.6865 52.2919 47.731C52.3971 47.7709 52.4978 47.8217 52.5925 47.8827C52.6846 47.9426 52.772 48.0095 52.8539 48.083L52.7097 48.3197C52.6984 48.3413 52.6815 48.3594 52.6609 48.3722C52.6403 48.3851 52.6167 48.392 52.5925 48.3925C52.5592 48.3914 52.5269 48.3809 52.4993 48.3621C52.4542 48.3379 52.4061 48.3075 52.352 48.2711C52.2881 48.2307 52.2207 48.1961 52.1507 48.1679C52.0611 48.1317 51.9686 48.1032 51.8742 48.083C51.7483 48.0596 51.6205 48.0484 51.4925 48.0496C51.2942 48.0474 51.0973 48.0834 50.9125 48.1558C50.7452 48.2235 50.5945 48.3271 50.4707 48.4592C50.3461 48.597 50.251 48.7592 50.1912 48.9356C50.0569 49.3507 50.0569 49.7981 50.1912 50.2131C50.2569 50.3933 50.3593 50.5576 50.4917 50.6955C50.615 50.827 50.7645 50.9304 50.9305 50.999C51.1216 51.0652 51.3241 51.091 51.5255 51.0748Z" fill="#AFB1B8"/>
<path d="M56.3164 51.014H57.9574V51.4509H55.8145V47.6189H56.3284L56.3164 51.014Z" fill="#AFB1B8"/>
<path d="M59.6643 51.4509H59.1504V47.6189H59.6643V51.4509Z" fill="#AFB1B8"/>
<path d="M61.5757 47.6371C61.6063 47.6547 61.6329 47.6785 61.6539 47.7069L63.8508 50.5955C63.8478 50.5501 63.8478 50.5045 63.8508 50.459C63.8508 50.4165 63.8508 50.374 63.8508 50.3346V47.6038H64.2986V51.4512H64.0401C64.0018 51.4543 63.9634 51.447 63.9289 51.43C63.8977 51.4109 63.8702 51.3862 63.8478 51.3571L61.6539 48.4716C61.6539 48.5171 61.6539 48.5595 61.6539 48.602C61.6539 48.6445 61.6539 48.684 61.6539 48.7204V51.4512H61.2241V47.6189H61.4916C61.5206 47.619 61.5493 47.6252 61.5757 47.6371Z" fill="#AFB1B8"/>
<path d="M68.0825 47.6189V48.0406H66.2613V49.3059H67.7369V49.7124H66.2613V51.0202H68.0825V51.4419H65.7324V47.6189H68.0825Z" fill="#AFB1B8"/>
<path d="M14.2283 23.9539L37.0485 30.4953V53.4173L14.2283 46.879V23.9539ZM12.7646 22V47.9925L38.5092 55.3743V29.3848L12.7646 22Z" fill="#AFB1B8"/>
<path d="M26.5627 67.4402L0.81543 60.0522V34.0625L26.5627 41.4474V67.4402Z" fill="#AFB1B8"/>
<path d="M13.1917 23.6596L35.7142 30.1189L26.136 39.7912L3.61046 33.3288L13.1917 23.6596ZM12.7649 22L0.81543 34.0631L26.5628 41.4478L38.5093 29.3847L12.7649 22Z" fill="#AFB1B8"/>
<path d="M28.0117 65.978L38.5095 55.3774L28.0117 52.3647V65.978Z" fill="#AFB1B8"/>
</svg>
