<svg width="170" height="90" viewBox="0 0 170 90" fill="none" xmlns="http://www.w3.org/2000/svg">
<rect x="0.5" y="0.5" width="169" height="89" rx="3.5" stroke="#AFB1B8"/>
<path d="M28.6215 65.7946C28.6356 65.795 28.6494 65.7982 28.6623 65.8041C28.6751 65.81 28.6867 65.8184 28.6963 65.8289L28.8892 66.0446C28.7394 66.2191 28.5543 66.3588 28.3465 66.4539C28.1032 66.5577 27.8409 66.6078 27.5771 66.6009C27.3292 66.6061 27.0829 66.5594 26.8535 66.4637C26.6466 66.3758 26.4607 66.2437 26.3084 66.0764C26.1529 65.9029 26.0332 65.6996 25.9562 65.4784C25.8719 65.2318 25.8303 64.9723 25.8332 64.7113C25.8298 64.4486 25.8748 64.1875 25.9659 63.9417C26.0501 63.7191 26.1772 63.5158 26.3397 63.3436C26.5044 63.1749 26.7014 63.0423 26.9186 62.9539C27.1562 62.8604 27.4091 62.8138 27.6639 62.8167C27.9006 62.8108 28.136 62.8534 28.3562 62.9417C28.5472 63.0259 28.7226 63.1428 28.8747 63.2873L28.7131 63.5177C28.702 63.5339 28.6881 63.548 28.6721 63.5593C28.6531 63.5726 28.63 63.5787 28.607 63.5765C28.582 63.5747 28.5578 63.5663 28.5371 63.552L28.4502 63.4907L28.3296 63.4123C28.2776 63.3832 28.2236 63.3578 28.168 63.3363C28.0965 63.3103 28.0231 63.2898 27.9485 63.275C27.8539 63.2573 27.7577 63.2491 27.6615 63.2505C27.478 63.2482 27.296 63.2832 27.126 63.3534C26.9675 63.4185 26.8245 63.5171 26.7063 63.6427C26.5861 63.7762 26.4934 63.9329 26.4338 64.1034C26.3659 64.2985 26.3324 64.5043 26.3349 64.7113C26.332 64.9214 26.3655 65.1305 26.4338 65.3289C26.4926 65.498 26.5836 65.6537 26.7015 65.7872C26.812 65.9117 26.9489 66.0089 27.1019 66.0715C27.2594 66.1379 27.4284 66.1712 27.5988 66.1696C27.6972 66.1711 27.7956 66.1646 27.8931 66.15C28.0521 66.1302 28.2047 66.0741 28.3393 65.9858C28.4068 65.9405 28.4705 65.8897 28.5298 65.8338C28.5546 65.8098 28.5872 65.7958 28.6215 65.7946Z" fill="#AFB1B8"/>
<path d="M34.1931 64.7108C34.1961 64.9709 34.1519 65.2292 34.0628 65.473C33.9842 65.6941 33.8604 65.8958 33.6995 66.0648C33.5386 66.2338 33.3443 66.3662 33.1294 66.4533C32.6571 66.6363 32.1351 66.6363 31.6629 66.4533C31.4493 66.3648 31.2563 66.2321 31.0961 66.0636C30.9353 65.8916 30.8105 65.6882 30.7294 65.4657C30.5557 64.972 30.5557 64.4325 30.7294 63.9388C30.8117 63.7162 30.9363 63.5122 31.0961 63.3384C31.2577 63.1752 31.4506 63.0476 31.6629 62.9635C32.1345 62.7772 32.6577 62.7772 33.1294 62.9635C33.3436 63.0519 33.5375 63.1846 33.6986 63.3531C33.8574 63.5235 33.9812 63.7243 34.0628 63.9437C34.1522 64.1892 34.1963 64.4492 34.1931 64.7108ZM33.6865 64.7108C33.6903 64.5028 33.6594 64.2956 33.5949 64.0981C33.5408 63.929 33.453 63.7729 33.3368 63.6399C33.2237 63.5139 33.0845 63.4152 32.9292 63.3507C32.586 63.2167 32.2062 63.2167 31.8631 63.3507C31.7078 63.4152 31.5685 63.5139 31.4554 63.6399C31.3377 63.7722 31.2489 63.9284 31.195 64.0981C31.0722 64.4971 31.0722 64.9246 31.195 65.3235C31.2494 65.4931 31.3381 65.6492 31.4554 65.7818C31.5687 65.907 31.7079 66.0049 31.8631 66.0685C32.2068 66.1991 32.5854 66.1991 32.9292 66.0685C33.0843 66.0049 33.2236 65.907 33.3368 65.7818C33.4525 65.6484 33.5403 65.4925 33.5949 65.3235C33.6596 65.1261 33.6906 64.9189 33.6865 64.7108Z" fill="#AFB1B8"/>
<path d="M37.9945 65.3532L38.0451 65.4904C38.0644 65.4414 38.0813 65.3973 38.1006 65.3532C38.119 65.3071 38.1399 65.2621 38.1633 65.2184L39.3959 62.942C39.42 62.9028 39.4417 62.8783 39.4658 62.8709C39.4986 62.8608 39.5329 62.8566 39.5671 62.8587H39.9313V66.5613H39.4996V63.8388C39.4996 63.8045 39.4996 63.7653 39.4996 63.7237C39.4973 63.6812 39.4973 63.6387 39.4996 63.5962L38.2598 65.9046C38.2441 65.9391 38.2189 65.9684 38.1872 65.9888C38.1556 66.0092 38.1188 66.02 38.0813 66.0197H38.0114C37.9738 66.0203 37.9369 66.0097 37.9052 65.9892C37.8735 65.9687 37.8484 65.9393 37.8329 65.9046L36.5569 63.5815C36.5569 63.6256 36.5569 63.6698 36.5569 63.7139C36.5569 63.758 36.5569 63.7972 36.5569 63.8315V66.5539H36.1396V62.8587H36.5039C36.5381 62.8566 36.5724 62.8608 36.6052 62.8709C36.6351 62.886 36.6589 62.9111 36.6727 62.942L37.9318 65.2209C37.9565 65.263 37.9775 65.3073 37.9945 65.3532Z" fill="#AFB1B8"/>
<path d="M42.6328 65.1692V66.5562H42.1504V62.8585H43.2261C43.4292 62.8546 43.6317 62.8818 43.8267 62.9394C43.9829 62.9843 44.1276 63.0629 44.2512 63.1697C44.3584 63.2699 44.441 63.394 44.4925 63.5324C44.5494 63.6832 44.5772 63.8438 44.5745 64.0053C44.5766 64.1675 44.5462 64.3284 44.4852 64.4782C44.4272 64.6201 44.3381 64.7466 44.2247 64.8482C44.101 64.9595 43.9555 65.043 43.7978 65.0933C43.61 65.1542 43.4136 65.1832 43.2165 65.179L42.6328 65.1692ZM42.6328 64.7723H43.2165C43.3433 64.7739 43.4695 64.7549 43.5904 64.7159C43.69 64.6818 43.7819 64.6277 43.8605 64.5566C43.933 64.4888 43.9891 64.405 44.0245 64.3116C44.064 64.2128 44.0837 64.107 44.0824 64.0004C44.088 63.8976 44.0715 63.7948 44.034 63.6992C43.9965 63.6035 43.939 63.5174 43.8653 63.4466C43.681 63.3004 43.4496 63.2296 43.2165 63.2481H42.6328V64.7723Z" fill="#AFB1B8"/>
<path d="M49.1166 66.5612H48.7355C48.6972 66.5626 48.6597 66.5505 48.6294 66.5268C48.602 66.5038 48.5805 66.4744 48.5666 66.4411L48.2386 65.5466H46.5912L46.2511 66.4411C46.2386 66.4738 46.2178 66.5025 46.1908 66.5244C46.1601 66.5495 46.1216 66.5625 46.0823 66.5612H45.7012L47.1484 62.8582H47.6501L49.1166 66.5612ZM46.7287 65.1863H48.0891L47.515 63.6791C47.4711 63.5658 47.4349 63.4495 47.4065 63.3311L47.351 63.5247C47.3341 63.5836 47.3148 63.6375 47.2979 63.6816L46.7287 65.1863Z" fill="#AFB1B8"/>
<path d="M51.2004 62.8754C51.2293 62.8915 51.254 62.9141 51.2728 62.9416L53.3833 65.7329C53.3833 65.6887 53.3833 65.6446 53.3833 65.603C53.3833 65.5613 53.3833 65.5197 53.3833 65.4804V62.8582H53.815V66.5612H53.5738C53.5396 66.5622 53.5056 66.5547 53.4749 66.5391C53.4451 66.5215 53.4189 66.4982 53.3977 66.4705L51.2897 63.6817C51.292 63.7241 51.292 63.7666 51.2897 63.8091C51.2897 63.8508 51.2897 63.8875 51.2897 63.9218V66.5612H50.8579V62.8582H51.1136C51.1434 62.8574 51.1731 62.8632 51.2004 62.8754Z" fill="#AFB1B8"/>
<path d="M57.3705 65.0884V66.5588H56.8881V65.0884L55.5542 62.8584H55.986C56.0232 62.8561 56.0599 62.8674 56.0897 62.8902C56.1159 62.914 56.138 62.9422 56.1548 62.9735L56.9894 64.4121C57.0232 64.4733 57.0521 64.5297 57.0762 64.5836C57.1003 64.6375 57.1196 64.689 57.1365 64.7405L57.1992 64.5812C57.2226 64.5229 57.25 64.4664 57.2812 64.4121L58.1038 62.9637C58.1211 62.9348 58.1422 62.9084 58.1665 62.8853C58.1951 62.8599 58.2323 62.8467 58.2702 62.8486H58.7068L57.3705 65.0884Z" fill="#AFB1B8"/>
<path d="M37.7559 56.6443C37.9657 56.6712 38.178 56.6933 38.3926 56.7129C41.6472 55.2337 44.4004 52.8127 46.3082 49.7526C48.216 46.6924 49.1936 43.1289 49.1189 39.5073L45.5323 35.8633C46.2615 39.7191 45.9204 43.705 44.547 47.3751C43.1737 51.0452 40.8222 54.2546 37.7559 56.6443Z" fill="#AFB1B8"/>
<path d="M36.4751 56.4748L36.5716 56.4944C39.8483 54.1132 42.3465 50.788 43.7431 46.9488C45.1398 43.1097 45.3706 38.9331 44.4058 34.9592L39.2972 29.769C41.3635 34.0353 42.1952 38.8098 41.6956 43.5374C41.1961 48.265 39.3857 52.7514 36.4751 56.4748Z" fill="#AFB1B8"/>
<path d="M53.8007 43.7861C52.9328 47.7654 50.8248 51.3541 47.7899 54.0196C46.9036 54.8023 45.9475 55.4996 44.9341 56.1025C47.4054 55.3646 49.6769 54.0598 51.5734 52.289C53.4699 50.5181 54.9408 48.3284 55.8726 45.8887L53.8007 43.7861Z" fill="#AFB1B8"/>
<path d="M52.988 43.2002L50.0381 40.2031C49.9817 43.6201 49.0255 46.9594 47.269 49.8739C45.5125 52.7885 43.0197 55.1718 40.0498 56.7764H40.0643C40.7261 56.7761 41.3874 56.736 42.0446 56.6563C44.8201 55.5053 47.2721 53.6742 49.1816 51.3262C51.0911 48.9782 52.3988 46.1865 52.988 43.2002Z" fill="#AFB1B8"/>
<path d="M36.9019 27.5803L33.3827 24C30.2367 25.2351 27.5311 27.4064 25.6198 30.2297C23.7085 33.053 22.6807 36.3968 22.6709 39.8234V39.8234C22.6827 43.6097 23.937 47.2838 26.2354 50.2643C28.5338 53.2448 31.745 55.3614 35.3606 56.2791C38.5883 52.2838 40.478 47.347 40.7552 42.186C41.0323 37.025 39.6826 31.9086 36.9019 27.5803Z" fill="#AFB1B8"/>
<path d="M61.1186 42.649C61.1059 38.1568 59.3437 33.8522 56.2172 30.6757C53.0906 27.4992 48.8537 25.709 44.4321 25.6961C42.389 25.6939 40.3631 26.077 38.4575 26.8258L60.0042 48.7166C60.742 46.7815 61.1199 44.7241 61.1186 42.649Z" fill="#AFB1B8"/>
</svg>
