<svg width="179" height="90" viewBox="0 0 179 90" fill="none" xmlns="http://www.w3.org/2000/svg">
<rect x="9.5" y="0.5" width="169" height="89" rx="3.5" stroke="#2196F3"/>
<path d="M12.0958 36.8306H12.0932C9.97176 36.8306 8.25195 38.6177 8.25195 40.8223V40.8249C8.25195 43.0295 9.97176 44.8167 12.0932 44.8167H12.0958C14.2173 44.8167 15.9371 43.0295 15.9371 40.8249V40.8223C15.9371 38.6177 14.2173 36.8306 12.0958 36.8306Z" fill="#2196F3"/>
<path d="M40.4483 35.5545C40.4423 32.4924 39.2693 29.5575 37.186 27.3921C35.1027 25.2266 32.2787 24.007 29.3322 24V24C26.3847 24.0056 23.5595 25.2246 21.4751 27.3902C19.3907 29.5558 18.217 32.4915 18.2109 35.5545V52.4402C18.2109 52.4402 40.4458 49.8667 40.4483 35.5571V35.5545Z" fill="#2196F3"/>
<path d="M0.46582 57.9823C0.471165 60.1129 1.28781 62.1547 2.73731 63.6615C4.18681 65.1683 6.15131 66.0177 8.20154 66.0239C10.2513 66.0177 12.2154 65.1687 13.6649 63.6625C15.1143 62.1562 15.9312 60.1151 15.9373 57.9849V46.2356C15.9373 46.2356 0.46582 48.0276 0.46582 57.9823ZM8.20154 60.0874C7.80089 60.0874 7.40924 59.964 7.07611 59.7326C6.74298 59.5013 6.48334 59.1726 6.33002 58.7879C6.1767 58.4032 6.13658 57.98 6.21474 57.5716C6.2929 57.1632 6.48584 56.7881 6.76914 56.4937C7.05244 56.1993 7.41339 55.9988 7.80634 55.9176C8.19929 55.8364 8.6066 55.8781 8.97675 56.0374C9.3469 56.1967 9.66327 56.4665 9.88586 56.8127C10.1085 57.1589 10.2273 57.5659 10.2273 57.9823C10.2283 58.2594 10.1766 58.534 10.0752 58.7903C9.97389 59.0466 9.82484 59.2796 9.63663 59.476C9.44843 59.6723 9.22477 59.828 8.97851 59.9343C8.73224 60.0406 8.4682 60.0953 8.20154 60.0953V60.0874Z" fill="#2196F3"/>
<path d="M24.1768 58.7812H22.4893V60.5244H21.6104V56.2588H24.3877V56.9707H22.4893V58.0723H24.1768V58.7812ZM28.4014 58.4883C28.4014 58.9082 28.3271 59.2764 28.1787 59.5928C28.0303 59.9092 27.8174 60.1533 27.54 60.3252C27.2646 60.4971 26.9482 60.583 26.5908 60.583C26.2373 60.583 25.9219 60.498 25.6445 60.3281C25.3672 60.1582 25.1523 59.916 25 59.6016C24.8477 59.2852 24.7705 58.9219 24.7686 58.5117V58.3008C24.7686 57.8809 24.8438 57.5117 24.9941 57.1934C25.1465 56.873 25.3604 56.6279 25.6357 56.458C25.9131 56.2861 26.2295 56.2002 26.585 56.2002C26.9404 56.2002 27.2559 56.2861 27.5312 56.458C27.8086 56.6279 28.0225 56.873 28.1729 57.1934C28.3252 57.5117 28.4014 57.8799 28.4014 58.2979V58.4883ZM27.5107 58.2949C27.5107 57.8477 27.4307 57.5078 27.2705 57.2754C27.1104 57.043 26.8818 56.9268 26.585 56.9268C26.29 56.9268 26.0625 57.042 25.9023 57.2725C25.7422 57.501 25.6611 57.8369 25.6592 58.2803V58.4883C25.6592 58.9238 25.7393 59.2617 25.8994 59.502C26.0596 59.7422 26.29 59.8623 26.5908 59.8623C26.8857 59.8623 27.1123 59.7471 27.2705 59.5166C27.4287 59.2842 27.5088 58.9463 27.5107 58.5029V58.2949ZM31.252 59.4053C31.252 59.2393 31.1934 59.1123 31.0762 59.0244C30.959 58.9346 30.748 58.8408 30.4434 58.7432C30.1387 58.6436 29.8975 58.5459 29.7197 58.4502C29.2354 58.1885 28.9932 57.8359 28.9932 57.3926C28.9932 57.1621 29.0576 56.957 29.1865 56.7773C29.3174 56.5957 29.5039 56.4541 29.7461 56.3525C29.9902 56.251 30.2637 56.2002 30.5664 56.2002C30.8711 56.2002 31.1426 56.2559 31.3809 56.3672C31.6191 56.4766 31.8037 56.6318 31.9346 56.833C32.0674 57.0342 32.1338 57.2627 32.1338 57.5186H31.2549C31.2549 57.3232 31.1934 57.1719 31.0703 57.0645C30.9473 56.9551 30.7744 56.9004 30.5518 56.9004C30.3369 56.9004 30.1699 56.9463 30.0508 57.0381C29.9316 57.1279 29.8721 57.2471 29.8721 57.3955C29.8721 57.5342 29.9414 57.6504 30.0801 57.7441C30.2207 57.8379 30.4268 57.9258 30.6982 58.0078C31.1982 58.1582 31.5625 58.3447 31.791 58.5674C32.0195 58.79 32.1338 59.0674 32.1338 59.3994C32.1338 59.7686 31.9941 60.0586 31.7148 60.2695C31.4355 60.4785 31.0596 60.583 30.5869 60.583C30.2588 60.583 29.96 60.5234 29.6904 60.4043C29.4209 60.2832 29.2148 60.1182 29.0723 59.9092C28.9316 59.7002 28.8613 59.458 28.8613 59.1826H29.7432C29.7432 59.6533 30.0244 59.8887 30.5869 59.8887C30.7959 59.8887 30.959 59.8467 31.0762 59.7627C31.1934 59.6768 31.252 59.5576 31.252 59.4053ZM35.9424 56.9707H34.6357V60.5244H33.7568V56.9707H32.4678V56.2588H35.9424V56.9707ZM39.0127 58.6758H37.3252V59.8184H39.3057V60.5244H36.4463V56.2588H39.2998V56.9707H37.3252V57.9873H39.0127V58.6758ZM41.4004 58.9629H40.7002V60.5244H39.8213V56.2588H41.4062C41.9102 56.2588 42.2988 56.3711 42.5723 56.5957C42.8457 56.8203 42.9824 57.1377 42.9824 57.5479C42.9824 57.8389 42.9189 58.082 42.792 58.2773C42.667 58.4707 42.4766 58.625 42.2207 58.7402L43.1436 60.4834V60.5244H42.2002L41.4004 58.9629ZM40.7002 58.251H41.4092C41.6299 58.251 41.8008 58.1953 41.9219 58.084C42.043 57.9707 42.1035 57.8154 42.1035 57.6182C42.1035 57.417 42.0459 57.2588 41.9307 57.1436C41.8174 57.0283 41.6426 56.9707 41.4062 56.9707H40.7002V58.251ZM46.0264 59.0215V60.5244H45.1475V56.2588H46.8115C47.1318 56.2588 47.4131 56.3174 47.6553 56.4346C47.8994 56.5518 48.0869 56.7188 48.2178 56.9355C48.3486 57.1504 48.4141 57.3955 48.4141 57.6709C48.4141 58.0889 48.2705 58.4189 47.9834 58.6611C47.6982 58.9014 47.3027 59.0215 46.7969 59.0215H46.0264ZM46.0264 58.3096H46.8115C47.0439 58.3096 47.2207 58.2549 47.3418 58.1455C47.4648 58.0361 47.5264 57.8799 47.5264 57.6768C47.5264 57.4678 47.4648 57.2988 47.3418 57.1699C47.2188 57.041 47.0488 56.9746 46.832 56.9707H46.0264V58.3096ZM51.5869 58.6758H49.8994V59.8184H51.8799V60.5244H49.0205V56.2588H51.874V56.9707H49.8994V57.9873H51.5869V58.6758ZM55.665 56.9707H54.3584V60.5244H53.4795V56.9707H52.1904V56.2588H55.665V56.9707ZM58.7354 58.6758H57.0479V59.8184H59.0283V60.5244H56.1689V56.2588H59.0225V56.9707H57.0479V57.9873H58.7354V58.6758ZM61.123 58.9629H60.4229V60.5244H59.5439V56.2588H61.1289C61.6328 56.2588 62.0215 56.3711 62.2949 56.5957C62.5684 56.8203 62.7051 57.1377 62.7051 57.5479C62.7051 57.8389 62.6416 58.082 62.5146 58.2773C62.3896 58.4707 62.1992 58.625 61.9434 58.7402L62.8662 60.4834V60.5244H61.9229L61.123 58.9629ZM60.4229 58.251H61.1318C61.3525 58.251 61.5234 58.1953 61.6445 58.084C61.7656 57.9707 61.8262 57.8154 61.8262 57.6182C61.8262 57.417 61.7686 57.2588 61.6533 57.1436C61.54 57.0283 61.3652 56.9707 61.1289 56.9707H60.4229V58.251ZM65.5879 59.4053C65.5879 59.2393 65.5293 59.1123 65.4121 59.0244C65.2949 58.9346 65.084 58.8408 64.7793 58.7432C64.4746 58.6436 64.2334 58.5459 64.0557 58.4502C63.5713 58.1885 63.3291 57.8359 63.3291 57.3926C63.3291 57.1621 63.3936 56.957 63.5225 56.7773C63.6533 56.5957 63.8398 56.4541 64.082 56.3525C64.3262 56.251 64.5996 56.2002 64.9023 56.2002C65.207 56.2002 65.4785 56.2559 65.7168 56.3672C65.9551 56.4766 66.1396 56.6318 66.2705 56.833C66.4033 57.0342 66.4697 57.2627 66.4697 57.5186H65.5908C65.5908 57.3232 65.5293 57.1719 65.4062 57.0645C65.2832 56.9551 65.1104 56.9004 64.8877 56.9004C64.6729 56.9004 64.5059 56.9463 64.3867 57.0381C64.2676 57.1279 64.208 57.2471 64.208 57.3955C64.208 57.5342 64.2773 57.6504 64.416 57.7441C64.5566 57.8379 64.7627 57.9258 65.0342 58.0078C65.5342 58.1582 65.8984 58.3447 66.127 58.5674C66.3555 58.79 66.4697 59.0674 66.4697 59.3994C66.4697 59.7686 66.3301 60.0586 66.0508 60.2695C65.7715 60.4785 65.3955 60.583 64.9229 60.583C64.5947 60.583 64.2959 60.5234 64.0264 60.4043C63.7568 60.2832 63.5508 60.1182 63.4082 59.9092C63.2676 59.7002 63.1973 59.458 63.1973 59.1826H64.0791C64.0791 59.6533 64.3604 59.8887 64.9229 59.8887C65.1318 59.8887 65.2949 59.8467 65.4121 59.7627C65.5293 59.6768 65.5879 59.5576 65.5879 59.4053Z" fill="#2196F3"/>
</svg>
