<svg width="170" height="90" viewBox="0 0 170 90" fill="none" xmlns="http://www.w3.org/2000/svg">
<rect x="0.5" y="0.5" width="169" height="89" rx="3.5" stroke="#AFB1B8"/>
<path d="M51.3213 20L58.174 26.918H77.2899V46.2158L84.1426 53.1338V20H51.3213Z" fill="#AFB1B8"/>
<path d="M45.6948 26.6265V58.8137H77.5784V46.0195L58.3762 26.6344L45.6948 26.6265ZM71.5047 54.1055H50.74V32.4579H52.2078V52.6397H71.5047V54.1055Z" fill="#AFB1B8"/>
<path d="M54.9712 64.7837L55.7891 63.0991H56.4727L55.2812 65.3452V66.6538H54.6611V65.3452L53.4673 63.0991H54.1533L54.9712 64.7837ZM58.4819 65.8262H57.105L56.8169 66.6538H56.1748L57.5176 63.0991H58.0718L59.417 66.6538H58.7725L58.4819 65.8262ZM57.2783 65.3281H58.3086L57.7935 63.8535L57.2783 65.3281ZM60.916 65.6943C60.916 65.5299 60.9608 65.3794 61.0503 65.2427C61.1398 65.1043 61.3164 64.9408 61.5801 64.752C61.4417 64.5778 61.3449 64.4297 61.2896 64.3076C61.2358 64.1855 61.209 64.0675 61.209 63.9536C61.209 63.6753 61.2936 63.4556 61.4629 63.2944C61.6322 63.1317 61.86 63.0503 62.1465 63.0503C62.4053 63.0503 62.6169 63.1268 62.7812 63.2798C62.9473 63.4312 63.0303 63.6191 63.0303 63.8438C63.0303 63.9919 62.9928 64.1286 62.918 64.2539C62.8431 64.3776 62.7202 64.5013 62.5493 64.625L62.3076 64.8008L62.9937 65.6113C63.0929 65.416 63.1426 65.1987 63.1426 64.9595H63.6577C63.6577 65.3973 63.5552 65.7562 63.3501 66.0361L63.8726 66.6538H63.1841L62.9839 66.417C62.73 66.6074 62.4272 66.7026 62.0757 66.7026C61.7241 66.7026 61.4425 66.6099 61.231 66.4243C61.021 66.2371 60.916 65.9938 60.916 65.6943ZM62.0928 66.229C62.293 66.229 62.4801 66.1623 62.6543 66.0288L61.8779 65.1133L61.8022 65.167C61.6069 65.3151 61.5093 65.4844 61.5093 65.6748C61.5093 65.8392 61.5622 65.9727 61.668 66.0752C61.7738 66.1777 61.9154 66.229 62.0928 66.229ZM61.7656 63.939C61.7656 64.0757 61.8494 64.2474 62.0171 64.4541L62.2881 64.2686L62.3638 64.2075C62.4647 64.118 62.5151 64.0033 62.5151 63.8633C62.5151 63.7705 62.4801 63.6916 62.4102 63.6265C62.3402 63.5597 62.2515 63.5264 62.144 63.5264C62.0285 63.5264 61.9365 63.5654 61.8682 63.6436C61.7998 63.7217 61.7656 63.8201 61.7656 63.939ZM68.2231 65.4966C68.1873 65.8758 68.0474 66.172 67.8032 66.3853C67.5591 66.5968 67.2344 66.7026 66.8291 66.7026C66.5459 66.7026 66.2961 66.6359 66.0796 66.5024C65.8647 66.3674 65.6987 66.1761 65.5815 65.9287C65.4644 65.6813 65.4033 65.394 65.3984 65.0669V64.7349C65.3984 64.3996 65.4578 64.1042 65.5767 63.8486C65.6955 63.5931 65.8656 63.3962 66.0869 63.2578C66.3099 63.1195 66.5671 63.0503 66.8584 63.0503C67.2507 63.0503 67.5664 63.1569 67.8057 63.3701C68.0449 63.5833 68.1841 63.8844 68.2231 64.2734H67.6079C67.5786 64.0179 67.5037 63.834 67.3833 63.7217C67.2645 63.6077 67.0895 63.5508 66.8584 63.5508C66.5898 63.5508 66.3831 63.6493 66.2383 63.8462C66.0951 64.0415 66.0218 64.3288 66.0186 64.708V65.0229C66.0186 65.4071 66.0869 65.7 66.2236 65.9019C66.362 66.1037 66.5638 66.2046 66.8291 66.2046C67.0716 66.2046 67.2539 66.1501 67.376 66.041C67.498 65.932 67.5754 65.7505 67.6079 65.4966H68.2231ZM71.6143 64.9692C71.6143 65.3175 71.554 65.6235 71.4336 65.8872C71.3132 66.1493 71.1406 66.3511 70.916 66.4927C70.693 66.6326 70.4359 66.7026 70.1445 66.7026C69.8564 66.7026 69.5993 66.6326 69.373 66.4927C69.1484 66.3511 68.9743 66.1501 68.8506 65.8896C68.7285 65.6292 68.6667 65.3289 68.665 64.9888V64.7886C68.665 64.4419 68.7261 64.1359 68.8481 63.8706C68.9718 63.6053 69.1452 63.4027 69.3682 63.2627C69.5928 63.1211 69.8499 63.0503 70.1396 63.0503C70.4294 63.0503 70.6857 63.1203 70.9087 63.2603C71.1333 63.3986 71.3066 63.5988 71.4287 63.8608C71.5508 64.1213 71.6126 64.4248 71.6143 64.7715V64.9692ZM70.9966 64.7837C70.9966 64.3898 70.9217 64.0879 70.772 63.8779C70.6239 63.668 70.4131 63.563 70.1396 63.563C69.8727 63.563 69.6636 63.668 69.5122 63.8779C69.3625 64.0863 69.286 64.3817 69.2827 64.7642V64.9692C69.2827 65.3599 69.3584 65.6618 69.5098 65.875C69.6628 66.0882 69.8743 66.1948 70.1445 66.1948C70.418 66.1948 70.6279 66.0907 70.7744 65.8823C70.9225 65.674 70.9966 65.3696 70.9966 64.9692V64.7837Z" fill="#AFB1B8"/>
</svg>
